<mxfile host="app.diagrams.net" modified="2021-08-23T15:36:07.443Z" agent="5.0 (Macintosh; Intel Mac OS X 10_15_7) AppleWebKit/537.36 (KHTML, like Gecko) Chrome/92.0.4515.159 Safari/537.36" etag="Gr5Q-Z8QaYaIId3BYJge" version="14.9.6" type="github">
  <diagram id="0lKW1Aan90PgITJyUYd0" name="Page-1">
    <mxGraphModel dx="1833" dy="988" grid="1" gridSize="10" guides="1" tooltips="1" connect="1" arrows="1" fold="1" page="1" pageScale="1" pageWidth="1169" pageHeight="1654" math="0" shadow="0">
      <root>
        <mxCell id="0" />
        <mxCell id="1" parent="0" />
        <mxCell id="DhUgteD-e49_5uq_BMv8-21" value="" style="rounded=0;whiteSpace=wrap;html=1;fontSize=14;fillColor=#ffe6cc;strokeColor=#d79b00;" vertex="1" parent="1">
          <mxGeometry x="260" y="170" width="130" height="250" as="geometry" />
        </mxCell>
        <mxCell id="DhUgteD-e49_5uq_BMv8-18" style="edgeStyle=orthogonalEdgeStyle;rounded=0;orthogonalLoop=1;jettySize=auto;html=1;fontSize=14;" edge="1" parent="1" source="DhUgteD-e49_5uq_BMv8-1" target="DhUgteD-e49_5uq_BMv8-3">
          <mxGeometry relative="1" as="geometry" />
        </mxCell>
        <mxCell id="DhUgteD-e49_5uq_BMv8-1" value="id=1" style="rounded=0;whiteSpace=wrap;html=1;fillColor=#dae8fc;strokeColor=#6c8ebf;fontSize=14;" vertex="1" parent="1">
          <mxGeometry x="280" y="180" width="50" height="40" as="geometry" />
        </mxCell>
        <mxCell id="DhUgteD-e49_5uq_BMv8-2" value="其他列" style="rounded=0;whiteSpace=wrap;html=1;fillColor=#dae8fc;strokeColor=#6c8ebf;fontSize=14;" vertex="1" parent="1">
          <mxGeometry x="330" y="180" width="50" height="40" as="geometry" />
        </mxCell>
        <mxCell id="DhUgteD-e49_5uq_BMv8-19" style="edgeStyle=orthogonalEdgeStyle;rounded=0;orthogonalLoop=1;jettySize=auto;html=1;entryX=0.5;entryY=0;entryDx=0;entryDy=0;fontSize=14;" edge="1" parent="1" source="DhUgteD-e49_5uq_BMv8-3" target="DhUgteD-e49_5uq_BMv8-6">
          <mxGeometry relative="1" as="geometry" />
        </mxCell>
        <mxCell id="DhUgteD-e49_5uq_BMv8-3" value="id=2" style="rounded=0;whiteSpace=wrap;html=1;fillColor=#dae8fc;strokeColor=#6c8ebf;fontSize=14;" vertex="1" parent="1">
          <mxGeometry x="280" y="240" width="50" height="40" as="geometry" />
        </mxCell>
        <mxCell id="DhUgteD-e49_5uq_BMv8-4" value="其他列" style="rounded=0;whiteSpace=wrap;html=1;fillColor=#dae8fc;strokeColor=#6c8ebf;fontSize=14;" vertex="1" parent="1">
          <mxGeometry x="330" y="240" width="50" height="40" as="geometry" />
        </mxCell>
        <mxCell id="DhUgteD-e49_5uq_BMv8-20" style="edgeStyle=orthogonalEdgeStyle;rounded=0;orthogonalLoop=1;jettySize=auto;html=1;entryX=0.5;entryY=0;entryDx=0;entryDy=0;fontSize=14;" edge="1" parent="1" source="DhUgteD-e49_5uq_BMv8-6" target="DhUgteD-e49_5uq_BMv8-16">
          <mxGeometry relative="1" as="geometry" />
        </mxCell>
        <mxCell id="DhUgteD-e49_5uq_BMv8-6" value="..." style="rounded=0;whiteSpace=wrap;html=1;fillColor=#dae8fc;strokeColor=#6c8ebf;fontSize=14;" vertex="1" parent="1">
          <mxGeometry x="280" y="300" width="50" height="40" as="geometry" />
        </mxCell>
        <mxCell id="DhUgteD-e49_5uq_BMv8-7" value="其他列" style="rounded=0;whiteSpace=wrap;html=1;fillColor=#dae8fc;strokeColor=#6c8ebf;fontSize=14;" vertex="1" parent="1">
          <mxGeometry x="330" y="300" width="50" height="40" as="geometry" />
        </mxCell>
        <mxCell id="DhUgteD-e49_5uq_BMv8-16" value="id=100" style="rounded=0;whiteSpace=wrap;html=1;fillColor=#dae8fc;strokeColor=#6c8ebf;fontSize=14;" vertex="1" parent="1">
          <mxGeometry x="280" y="370" width="50" height="40" as="geometry" />
        </mxCell>
        <mxCell id="DhUgteD-e49_5uq_BMv8-17" value="其他列" style="rounded=0;whiteSpace=wrap;html=1;fillColor=#dae8fc;strokeColor=#6c8ebf;fontSize=14;" vertex="1" parent="1">
          <mxGeometry x="330" y="370" width="50" height="40" as="geometry" />
        </mxCell>
        <mxCell id="DhUgteD-e49_5uq_BMv8-22" value="16KB" style="text;html=1;strokeColor=none;fillColor=none;align=center;verticalAlign=middle;whiteSpace=wrap;rounded=0;fontSize=14;" vertex="1" parent="1">
          <mxGeometry x="305" y="430" width="40" height="20" as="geometry" />
        </mxCell>
        <mxCell id="DhUgteD-e49_5uq_BMv8-23" value="页" style="text;html=1;strokeColor=none;fillColor=none;align=center;verticalAlign=middle;whiteSpace=wrap;rounded=0;fontSize=14;" vertex="1" parent="1">
          <mxGeometry x="305" y="150" width="40" height="20" as="geometry" />
        </mxCell>
      </root>
    </mxGraphModel>
  </diagram>
</mxfile>
